<?xml version="1.0" encoding="utf-8"?>
<!-- Generator: Adobe Illustrator 15.1.0, SVG Export Plug-In . SVG Version: 6.00 Build 0)  -->
<!DOCTYPE svg PUBLIC "-//W3C//DTD SVG 1.1//EN" "http://www.w3.org/Graphics/SVG/1.1/DTD/svg11.dtd">
<svg version="1.1" id="Layer_1" xmlns="http://www.w3.org/2000/svg" xmlns:xlink="http://www.w3.org/1999/xlink" x="0px" y="0px"
	 width="49.167px" height="49.166px" viewBox="0 0 49.167 49.166" enable-background="new 0 0 49.167 49.166" xml:space="preserve">
<g>
	<path fill="#231F20" d="M16.382,22.543v3.189v1.32v0.496v2.459v3.831v0.452v3.145c0,1.981-1.615,3.597-3.598,3.597
		s-3.597-1.615-3.597-3.597c0-1.983,1.614-3.597,3.597-3.597h2.319v-3.831h-2.319c-4.096,0-7.429,3.332-7.429,7.428
		s3.333,7.43,7.429,7.43c4.098,0,7.43-3.334,7.43-7.43v-3.545v-0.052v-3.831v-2.459v-0.442v-1.374v-3.189H16.382z"/>
	<path fill="#231F20" d="M36.382,30.008h-0.644h-2.953h-3.832H26h-4.509v3.831H26h2.953h3.832h2.953h0.644
		c1.983,0,3.597,1.613,3.597,3.597c0,1.981-1.613,3.597-3.597,3.597s-3.597-1.615-3.597-3.597v-2.319h-3.832v2.319
		c0,4.096,3.333,7.43,7.429,7.43c4.097,0,7.429-3.334,7.429-7.43S40.479,30.008,36.382,30.008z"/>
	<g>
		<path fill="#231F20" d="M42.512,5.987c-1.473-1.104-3.229-1.687-5.075-1.687c-4.678,0-8.483,3.804-8.483,8.481v1.557v3.096v3.832
			v2.812v4.65h3.832v-4.65v-2.812v-3.832v-3.096v-1.557c0-2.564,2.087-4.65,4.651-4.65c1.012,0,1.973,0.319,2.778,0.921
			c0.847,0.635,2.048,0.462,2.682-0.385S43.358,6.619,42.512,5.987z"/>
		<path fill="#231F20" d="M40.81,17.435h-6.747v3.832h6.747c1.06,0,1.916-0.857,1.916-1.917
			C42.726,18.292,41.87,17.435,40.81,17.435z"/>
	</g>
	<g>
		<path fill="#231F20" d="M20.214,17.435h-3.832h-2.954H8.344c-1.061,0-1.916,0.857-1.916,1.915c0,1.06,0.855,1.917,1.916,1.917
			h8.038h1.916h0.854h1.062h7.463v-3.832h-4.51H20.214z"/>
		<path fill="#231F20" d="M27.159,4.615c-0.745-0.21-1.516-0.314-2.295-0.314c-4.677,0-8.481,3.804-8.481,8.481v0.269v3.106h3.832
			v-3.106v-0.269c0-2.564,2.084-4.65,4.649-4.65c0.429,0,0.852,0.059,1.259,0.173c1.02,0.284,2.077-0.309,2.362-1.325
			C28.772,5.959,28.176,4.9,27.159,4.615z"/>
	</g>
</g>
</svg>
